<svg xmlns="http://www.w3.org/2000/svg" width="70" height="70"><defs><filter id="a"><feColorMatrix values="0.33 0.33 0.33 0 0 0.33 0.33 0.33 0 0 0.33 0.33 0.33 0 0 0 0 0 1 0"/></filter></defs><g fill="#496093" fill-rule="evenodd" filter="url(#a)"><path d="M0 0v70h23.3v-4.4h-19V4.4h61.3v33.2H70V0z"/><path d="M37.5 54.3v-5c0-.5-.2-.8-.4-1a2 2 0 0 0-1.1-.2 2 2 0 0 0-1 .2c-.3.2-.5.5-.5 1V65c0 .4.2.7.4.9l1.1.2c.5 0 .8 0 1-.2.3-.2.5-.5.5-1v-5.2h4.4v6.5a5.6 5.6 0 0 1-.3 1.3 2.8 2.8 0 0 1-.9 1.4c-.4.3-1 .6-1.8.8-.7.2-1.7.3-2.9.3a12 12 0 0 1-3-.3c-.7-.2-1.3-.5-1.7-.8a2.8 2.8 0 0 1-.9-1.4 5.3 5.3 0 0 1-.2-1.3 5.4 5.4 0 0 1 0-.5V48.5c0-.6 0-1.2.2-1.7a2.8 2.8 0 0 1 1-1.4c.3-.3 1-.6 1.7-.8a12 12 0 0 1 2.9-.3c1.2 0 2.2.1 3 .3.7.2 1.3.5 1.7.8.4.4.7.8 1 1.4l.2 1.8v5.8h-4.4zm19 7.1v4.8c0 1.2-.5 2.2-1.3 2.8-1 .7-2.5 1-4.6 1-1 0-2 0-2.7-.2-.8-.2-1.4-.4-2-.8a3.1 3.1 0 0 1-1-1.3 5 5 0 0 1-.3-1.5 8.5 8.5 0 0 1 0-.6v-5.7h4.3v5.2c0 .3.2.6.5.8l1.2.2c.5 0 .8 0 1.1-.2.3-.2.5-.5.5-.8v-3.2L52 61a1.3 1.3 0 0 0-.4-.5L46.6 56c-.6-.6-1-1.1-1.4-1.8-.3-.6-.5-1.5-.5-2.6v-3c0-1.7.5-2.8 1.4-3.5 1-.7 2.4-1 4.5-1 2.2 0 3.7.3 4.6 1 .9.7 1.3 1.8 1.3 3.3v4.7H52V49c0-.6-.5-1-1.5-1s-1.5.4-1.5 1v2.3l.1 1 .4.5 5.4 5c.5.4.8.9 1.1 1.4.3.5.5 1.3.5 2.2m7.4-13v6.3h5.6v3.9H64v7.2h5.8v4H59.6V44.4h10.2v3.9z"/></g></svg>