<svg xmlns="http://www.w3.org/2000/svg" width="216" height="60" version="1"><path fill="#0E2356" d="M215 29.3c0 13-9.3 22.1-22.2 22.1a21.3 21.3 0 0 1-22.2-22.1c0-12.2 10.7-20.7 22.2-20.7 11.6 0 22.2 8.5 22.2 20.7m-33.5 0c0 7 5.1 12 11.3 12s11.4-5 11.4-12c0-5.5-5.2-10.6-11.4-10.6s-11.3 5-11.3 10.6"/><path fill="#005CA9" d="M183.6 36.4a11 11 0 0 1-9.8 4.9c-6-.3-10.8-5.3-10.8-12 0-5.3 4.8-10.2 10.7-10.6h.6c3.8 0 7.2 1.9 9.3 4.6a11.6 11.6 0 0 1 9.9-4.6 21.7 21.7 0 0 0-10-8.2 23.6 23.6 0 0 0-9.2-2c-11.5 0-22.1 8.6-22.1 20.8 0 13 9.3 22.1 22.1 22.1a24 24 0 0 0 9.3-1.8c4.1-1.7 7.5-4.6 9.7-8.3h-.5a11 11 0 0 1-9.2-5"/><path fill="#008BD2" d="M134.8 50.6L125 26.9h-.2l-2.2 23.7h-10.7l5.5-41.2H128l8.9 22 8.8-22h10.6l5.5 41.2h-10.7L149 26.9h-.1l-10 23.7z"/><path fill="#13A538" d="M93.8 43.4l-2.9 7.2H73.7l6.1-.7L95.4 9.4h11.7l15.5 41.2h-11.4l-2.7-7.2H93.8zm7.5-21.3h-.2l-4.4 13.1h9l-4.4-13z"/><path fill="#95C23D" d="M61.4 9.4h15.1c11.5 0 21 9 21 20.6 0 11.6-9.6 20.6-21 20.6H61.4V9.4zM72 41.5h2.4c6.4 0 11.8-3.5 11.8-11.5 0-7.4-4.8-11.5-11.7-11.5H72v23zM45.4 29.3c0 13-9.4 22.1-22.2 22.1A21.3 21.3 0 0 1 1 29.3C1 17 11.6 8.6 23.2 8.6c11.5 0 22.2 8.5 22.2 20.7m-33.6 0c0 7 5.2 12 11.4 12s11.3-5 11.3-12c0-5.5-5.1-10.6-11.3-10.6s-11.4 5-11.4 10.6"/><path fill="#008BD2" d="M34.4 30.7a11.4 11.4 0 0 1-11.2 10.6c-6.2 0-11.4-5-11.4-12 0-5.5 5.2-10.6 11.4-10.6 5.9 0 10.7 4.5 11.3 9.7A21 21 0 0 0 17.7 9.2 20.9 20.9 0 0 0 1 29.2c0 11.1 6.8 19.4 16.7 21.6a21 21 0 0 0 16.7-20.1"/><path fill="#005CA9" d="M17.7 39.9c-3.5-2-5.9-5.9-5.9-10.6 0-3.8 2.4-7.3 6-9.2a11.5 11.5 0 0 0-5.5-1.4c-5.9 0-10.8 4.5-11.3 9.7a21 21 0 0 0 0 2.3c.7 6.2 5.5 10.6 11.3 10.6a11 11 0 0 0 5.4-1.4"/></svg>