<?xml version="1.0" encoding="UTF-8"?>
<!-- Generator: Adobe Illustrator 21.0.0, SVG Export Plug-In . SVG Version: 6.00 Build 0)  -->
<svg version="1.1" id="Rentegnet" xmlns="http://www.w3.org/2000/svg" xmlns:xlink="http://www.w3.org/1999/xlink" x="0px" y="0px" viewBox="0 0 596.798 169.977" enable-background="new 0 0 596.798 169.977" xml:space="preserve">
<g>
	<path fill="#00666E" d="M66.681,28.888c11.206,0,29.614,1.141,29.614,1.141l2.387-28.856c0,0-20.394-1.172-36.683-1.172   c-9.568,0-19.441,0.686-26.9,5.702c-12.348,7.947-13.394,21.131-13.394,33.953v11.456H0v27.592h21.956v63.234   c-2.516,0.475-14.314,2.719-14.314,2.719v23.709h63.386v-23.73c0,0-13.215-2.457-14.564-2.709V78.703H92.34l2.094-27.592h-37.97   v-13.45C56.464,29.141,57.303,28.888,66.681,28.888z"/>
	<path fill="#00666E" d="M160.167,49.74c-50.123,0-61.659,11.232-61.659,60.111c0,48.887,11.537,60.125,61.659,60.125   c50.128,0,61.659-11.238,61.659-60.125C221.826,60.973,210.296,49.74,160.167,49.74z M182.788,137.877   c-2.652,3.2-8.359,4.278-22.621,4.278c-14.184,0-19.865-1.078-22.548-4.289c-3.233-3.884-3.85-12.844-3.85-28.015   c0-15.166,0.617-24.123,3.85-28.006c2.684-3.217,8.365-4.295,22.548-4.295c14.262,0,19.969,1.078,22.621,4.279   c3.17,3.824,3.768,12.803,3.768,28.021C186.556,125.075,185.958,134.052,182.788,137.877z"/>
	<path fill="#00666E" d="M406.579,78.703c20.069,0,38.984,3.809,38.984,3.809l4.699-27.436c0,0-24.005-5.336-49.857-5.336   c-23.668,0-37.782,3.668-47.167,12.274c-10.02,9.171-14.477,23.923-14.477,47.843c0,23.912,4.457,38.666,14.477,47.836   c9.385,8.609,23.499,12.283,47.167,12.283c32.071,0,49.812-6.048,49.812-6.048l-4.682-26.577c0,0-18.587,4.113-38.957,4.113   c-15.936,0-23.648-1.513-27.498-5.398c-3.693-3.72-5.059-10.828-5.059-26.209c0-15.393,1.359-22.445,5.006-26.023   C382.802,80.141,390.528,78.703,406.579,78.703z"/>
	<path fill="#00666E" d="M582.744,141.938V88.475c0-16.191-5.372-26.419-16.905-32.211c-8.928-4.514-21.738-6.523-41.545-6.523   c-35.291,0-58.101,5.336-58.101,5.336l4.437,27.436c0,0,24.903-4.5,49.971-4.5c7.992,0,16.012,0.268,20.77,2.166   c4.184,1.605,6.604,3.838,6.604,12.463h-42.913c-34.308,0.502-45.868,9.038-45.868,37.672c0,33.531,17.608,39.664,52.288,39.664   c9.065,0,20.471-1.056,20.471-1.056l18.678-12.738l2.709,12.177h43.459v-23.684C596.798,144.676,584.01,142.18,582.744,141.938z    M547.991,138.393c-6.957,1.166-21.406,3.306-34.047,3.306c-7.209,0-13.418-0.136-16.406-1.771   c-1.004-0.556-3.086-1.697-3.086-9.615c0-8.895,2.16-10.197,2.873-10.631c2.328-1.409,6.629-1.434,18.164-1.434h32.502V138.393z"/>
	<path fill="#00666E" d="M294.043,51.128L274.845,64.89l-3.098-13.778h-41.161V74.82c0,0,12.995,2.475,14.304,2.721v64.397   c-2.52,0.48-14.304,2.725-14.304,2.725v23.703h63.124v-23.689c0,0-13.434-2.62-14.312-2.789V82.496   C285.058,81.898,295.74,81,309.006,81c10.029,0,23.967,1.328,23.967,1.328l2.568-31.117c0,0-12.756-1.48-19.875-1.48   C303.578,49.73,294.043,51.128,294.043,51.128z"/>
</g>
</svg>