<svg xmlns="http://www.w3.org/2000/svg" width="135" height="31"><g fill="none" fill-rule="evenodd"><path fill="#0A0B09" d="M41.2 21.7V8.5h3.5l4.4 9.8 4.4-9.8H57v13.2h-3V14l-3.2 7.7h-3.1L44.2 14v7.7h-3m27.3-5.1L66.1 11l-2.3 5.6h4.7zm-7 5h-3.3L64 8.6h4.2l6 13.2h-3.4L69.6 19h-6.9l-1.1 2.7zm14 0V8.6H88V11h-9.6v2.6h8.2v2.6h-8.2V19h9.6v2.7H75.5m18.1-7.2h6.7v-3.4h-6.7v3.4zm-3 7.2V8.5H101c1.4 0 2.2.8 2.2 2.2V15c0 1-.9 2-2.6 2h-.3l3 4.6h-3.3l-3-4.5h-3.5v4.5h-3zm18.3 0h-1c-1.4 0-2-.8-2-2V18h3v1h6.5v-2.7h-7.5c-1.2 0-2-.8-2-1.9v-3.9c0-1.2 1-2 2-2h8.6c1.1 0 2 .8 2 2v1.7h-3.1v-1h-6.5v2.5h7.4c1.1 0 2.1.7 2.1 2.1v3.8c0 1.3-.7 2-2 2h-7.5m12.5 0V8.6h3.1v5.3l6-5.3h4.2l-7.1 6.1 7.4 7h-4.4l-6-6v6h-3.2"/><path fill="#64B2D4" d="M28.6 26.6A3.4 3.4 0 0 1 25 30H3.6a3.4 3.4 0 0 1-3.4-3.4V3.5A3.4 3.4 0 0 1 3.6.1H25a3.4 3.4 0 0 1 3.5 3.4v23.1"/><path fill="#FFFFFE" d="M18.9 14.3l5.6-7-8.1 3.8-2-8.7-2 8.7-8.2-3.9 5.6 7-8 4h9l-2 8.8 5.6-7 5.6 7-2-8.8h9l-8.1-4"/></g></svg>