<?xml version="1.0" encoding="utf-8"?>
<!-- Generator: Adobe Illustrator 19.1.0, SVG Export Plug-In . SVG Version: 6.00 Build 0)  -->
<svg version="1.1" id="Layer_1" xmlns="http://www.w3.org/2000/svg" xmlns:xlink="http://www.w3.org/1999/xlink" x="0px" y="0px"
	 viewBox="114.3 257.5 123.1 79.2" style="enable-background:new 114.3 257.5 123.1 79.2;" xml:space="preserve">
<style type="text/css">
	.st0{fill:#6D6E71;}
	.st1{fill:#00548B;}
	.st2{opacity:0.9;fill:#00548B;enable-background:new    ;}
	.st3{opacity:0.65;fill:#00548B;enable-background:new    ;}
	.st4{opacity:0.4;fill:#00548B;enable-background:new    ;}
	.st5{opacity:0.3;fill:#00548B;enable-background:new    ;}
	.st6{opacity:0.1;fill:#00548B;enable-background:new    ;}
	.st7{opacity:0.8;fill:#00548B;enable-background:new    ;}
	.st8{opacity:0.7;fill:#00548B;enable-background:new    ;}
</style>
<g>
	<g>
		<path class="st0" d="M160.2,308.7H157l-0.5,1.1h-1.2l2.7-5.9h1.2l2.7,5.9h-1.2L160.2,308.7z M158.6,305.1l-1.1,2.5h2.2
			L158.6,305.1z"/>
		<path class="st0" d="M168.4,309c-0.6,0.6-1.4,0.9-2.3,0.9c-2.2,0-3.2-1.5-3.2-3c0-1.5,1-3.1,3.2-3.1c0.8,0,1.6,0.3,2.2,0.9
			l-0.8,0.7c-0.4-0.4-0.9-0.6-1.5-0.6c-1.5,0-2.1,1.1-2.1,2c0,1,0.6,2,2.1,2c0.5,0,1.1-0.2,1.5-0.6L168.4,309z"/>
		<path class="st0" d="M171.4,304.9h-1.9v-1c1.7,0,3.2,0,5,0v1h-1.9v4.9h-1.1L171.4,304.9L171.4,304.9z"/>
		<path class="st0" d="M181.6,303.9v3.4c0,1.7-1.1,2.6-2.6,2.6c-1.5,0-2.7-0.9-2.7-2.6v-3.4h1.1v3.4c0,1.1,0.6,1.6,1.6,1.6
			s1.5-0.6,1.5-1.6v-3.4H181.6z"/>
		<path class="st0" d="M189.1,309.8h-1.4l-1.8-2h-1.1v2h-1.1v-5.9c1,0,1.9,0,2.9,0c1.4,0,2.2,0.9,2.2,1.9c0,0.8-0.4,1.6-1.5,1.8
			L189.1,309.8L189.1,309.8L189.1,309.8z M184.9,304.9v1.9h1.7c0.7,0,1-0.5,1-0.9s-0.3-0.9-1-0.9H184.9z"/>
		<path class="st0" d="M190.5,309.8v-5.9h1.1v5.9H190.5z"/>
		<path class="st0" d="M197.6,305.3c-0.2-0.3-0.8-0.7-1.4-0.7c-0.8,0-1.3,0.3-1.3,0.8c0,0.5,0.6,0.7,1.3,0.7
			c1.3,0.1,2.4,0.5,2.4,1.9c0,1.3-1.2,1.9-2.5,1.9c-1.2,0-2.2-0.4-2.6-1.4l1-0.5c0.3,0.6,1,0.9,1.7,0.9c0.7,0,1.4-0.2,1.4-0.9
			c0-0.6-0.6-0.8-1.4-0.9c-1.2-0.1-2.4-0.5-2.4-1.8c0-1.2,1.2-1.7,2.3-1.7c0.9,0,1.9,0.3,2.4,1.2L197.6,305.3z"/>
		<path class="st0" d="M207.7,305.3c-0.4-0.4-1-0.6-1.5-0.6c-1.3,0-2.1,1-2.1,2.2c0,1,0.6,2,2.1,2c0.5,0,0.9-0.1,1.4-0.5v-1H206v-1
			h2.6v2.5c-0.6,0.7-1.3,1.1-2.4,1.1c-2.3,0-3.2-1.5-3.2-3c0-1.7,1.1-3.2,3.2-3.2c0.8,0,1.6,0.3,2.2,0.9L207.7,305.3z"/>
		<path class="st0" d="M215.7,309.8h-1.4l-1.8-2h-1.1v2h-1.1v-5.9c1,0,1.9,0,2.9,0c1.4,0,2.2,0.9,2.2,1.9c0,0.8-0.4,1.6-1.5,1.8
			L215.7,309.8L215.7,309.8L215.7,309.8z M211.5,304.9v1.9h1.7c0.7,0,1-0.5,1-0.9s-0.3-0.9-1-0.9H211.5z"/>
		<path class="st0" d="M223.1,306.9c0,1.5-1,3-3.1,3c-2.1,0-3.1-1.5-3.1-3s1-3.1,3.1-3.1C222.1,303.8,223.1,305.3,223.1,306.9z
			 M218,306.9c0,1,0.6,2,2,2c1.4,0,2-1,2-2c0-1-0.6-2.1-2-2.1C218.6,304.8,218,305.9,218,306.9z"/>
		<path class="st0" d="M230.2,303.9v3.4c0,1.7-1.1,2.6-2.6,2.6c-1.5,0-2.7-0.9-2.7-2.6v-3.4h1.1v3.4c0,1.1,0.6,1.6,1.6,1.6
			s1.5-0.6,1.5-1.6v-3.4H230.2z"/>
		<path class="st0" d="M235.1,308h-1.7v1.7h-1.1v-5.9c1,0,1.9,0,2.9,0C238.1,303.9,238.1,308,235.1,308z M233.4,307h1.7
			c1.5,0,1.5-2.1,0-2.1h-1.7V307z"/>
	</g>
	<g>
		
			<ellipse transform="matrix(0.1438 -0.9896 0.9896 0.1438 -172.3139 357.5917)" class="st1" cx="120.5" cy="278.4" rx="3.5" ry="6.2"/>
		
			<ellipse transform="matrix(0.3811 -0.9245 0.9245 0.3811 -165.271 281.2289)" class="st2" cx="127.4" cy="264.1" rx="2.2" ry="4.6"/>
		
			<ellipse transform="matrix(0.4926 -0.8703 0.8703 0.4926 -155.6935 251.9965)" class="st3" cx="138.3" cy="259.5" rx="1.5" ry="3.3"/>
		
			<ellipse transform="matrix(0.5946 -0.804 0.804 0.5946 -149.0638 225.0242)" class="st4" cx="148.6" cy="260.3" rx="0.9" ry="2.4"/>
		
			<ellipse transform="matrix(0.6594 -0.7518 0.7518 0.6594 -144.5698 208.259)" class="st5" cx="157.6" cy="263.7" rx="0.6" ry="2"/>
		
			<ellipse transform="matrix(0.7046 -0.7096 0.7096 0.7046 -141.7089 196.4062)" class="st6" cx="165" cy="268.4" rx="0.6" ry="1.6"/>
		
			<ellipse transform="matrix(-0.3603 -0.9328 0.9328 -0.3603 -110.8444 529.6948)" class="st1" cx="126.2" cy="302.9" rx="5.2" ry="7"/>
		
			<ellipse transform="matrix(-0.9266 -0.3761 0.3761 -0.9266 161.1283 681.0433)" class="st2" cx="147" cy="324.8" rx="4.9" ry="7"/>
		
			<ellipse transform="matrix(-0.9991 4.180108e-02 -4.180108e-02 -0.9991 352.2472 654.5172)" class="st7" cx="169.3" cy="330.9" rx="3.3" ry="5.7"/>
		
			<ellipse transform="matrix(-0.9634 0.2682 -0.2682 -0.9634 444.6664 587.8486)" class="st8" cx="182.2" cy="324.3" rx="1.9" ry="4.3"/>
	</g>
	<path d="M157.8,279.5c0.1,0.5,0.1,1,0.1,1.4c0,0.5,0,1,0,1.4h0.1c0.3-0.5,0.6-0.9,1.1-1.3c0.4-0.4,0.9-0.8,1.5-1.1
		c0.5-0.3,1.1-0.5,1.7-0.7c0.6-0.2,1.2-0.2,1.8-0.2c2.3,0,4,0.6,5.1,1.8c1.1,1.2,1.6,2.9,1.6,5.2v11.4h-2.5v-9.9c0-2-0.3-3.5-1-4.6
		c-0.7-1.1-2-1.6-3.8-1.6c-0.1,0-0.5,0.1-1.1,0.2c-0.6,0.1-1.2,0.4-1.9,0.8s-1.2,1.1-1.7,2.1c-0.5,0.9-0.8,2.2-0.8,3.8v9.2h-2.5v-14
		c0-0.5,0-1.1-0.1-1.8c0-0.7-0.1-1.4-0.1-2.1L157.8,279.5L157.8,279.5z"/>
	<path d="M179.1,272.7c0,0.5-0.2,1-0.6,1.3c-0.4,0.3-0.8,0.5-1.3,0.5s-0.9-0.2-1.3-0.5c-0.4-0.3-0.6-0.8-0.6-1.3
		c0-0.5,0.2-1,0.6-1.3c0.4-0.3,0.8-0.5,1.3-0.5s0.9,0.2,1.3,0.5C178.9,271.7,179.1,272.1,179.1,272.7z M178.5,297.5H176v-17.9h2.5
		V297.5z"/>
	<path d="M193.6,284c-0.4-0.7-0.9-1.3-1.5-1.7c-0.6-0.4-1.3-0.6-2.2-0.6c-0.4,0-0.8,0-1.3,0.1c-0.4,0.1-0.8,0.2-1.1,0.5
		s-0.6,0.5-0.8,0.8c-0.2,0.3-0.3,0.7-0.3,1.2c0,0.8,0.3,1.4,0.8,1.8c0.6,0.4,1.4,0.7,2.5,0.9l2.4,0.6c1.2,0.3,2.2,0.8,3,1.6
		c0.8,0.8,1.2,1.8,1.2,3c0,0.9-0.2,1.7-0.6,2.4c-0.4,0.7-0.9,1.2-1.5,1.6c-0.6,0.4-1.3,0.7-2.1,0.9c-0.8,0.2-1.6,0.3-2.4,0.3
		c-1.3,0-2.5-0.2-3.7-0.7c-1.1-0.5-2.1-1.4-2.9-2.6l2.1-1.4c0.5,0.8,1.1,1.4,1.8,1.9c0.7,0.5,1.6,0.7,2.6,0.7c0.5,0,1-0.1,1.5-0.2
		c0.5-0.1,0.9-0.3,1.3-0.5c0.4-0.2,0.7-0.5,0.9-0.9c0.2-0.4,0.3-0.8,0.3-1.3c0-0.9-0.3-1.5-0.9-1.8c-0.6-0.4-1.4-0.7-2.3-0.9
		l-2.3-0.5c-0.3-0.1-0.7-0.2-1.2-0.4c-0.5-0.2-1-0.4-1.5-0.8c-0.5-0.3-0.9-0.8-1.2-1.3s-0.5-1.2-0.5-2c0-0.9,0.2-1.6,0.5-2.3
		c0.4-0.7,0.8-1.2,1.4-1.6c0.6-0.4,1.3-0.7,2-0.9s1.5-0.3,2.3-0.3c1.2,0,2.3,0.2,3.3,0.7c1,0.5,1.8,1.2,2.4,2.4L193.6,284z"/>
</g>
</svg>
