<svg xmlns="http://www.w3.org/2000/svg" viewBox="0 0 115.2 115.3"><defs><filter id="a"><feColorMatrix values="0.33 0.33 0.33 0 0 0.33 0.33 0.33 0 0 0.33 0.33 0.33 0 0 0 0 0 1 0"/></filter></defs><g filter="url(#a)"><path fill="#fff" stroke="#000" stroke-miterlimit="3.9" stroke-width="2.5" d="M10.7 1.3h93.8c5.2 0 9.5 4.2 9.5 9.5v93.8c0 5.2-4.2 9.5-9.5 9.5H10.7a9.5 9.5 0 0 1-9.5-9.5V10.7a9.5 9.5 0 0 1 9.5-9.4z"/><path d="M9 105.3c0 1.1.7 1.8 1.7 1.8s1.7-.6 1.7-1.8v-8.4l7.1 9.4c.3.4 1 .7 1.4.7 1 0 1.7-.6 1.7-1.8V92.5c0-1.1-.7-1.8-1.7-1.8s-1.7.6-1.7 1.8v8.5l-7.1-9.5c-.3-.4-1-.7-1.4-.7-1 0-1.7.6-1.7 1.8v12.7zm22.9-1.2c-2.8 0-4.2-2.4-4.2-5.2 0-2.7 1.4-5.2 4.2-5.2s4.2 2.4 4.2 5.2c0 2.7-1.3 5.2-4.2 5.2zm0 3.1c4.6 0 7.7-3.6 7.7-8.3 0-4.6-3.2-8.3-7.7-8.3-4.6 0-7.7 3.6-7.7 8.3 0 4.7 3.2 8.3 7.7 8.3zm13.5-1.5c.3.7.7 1.3 1.7 1.3s1.4-.6 1.7-1.3l4.9-12.5.2-.8c0-.9-.8-1.6-1.7-1.6-.8 0-1.2.5-1.5 1.1l-3.5 9.3-3.5-9.3c-.3-.6-.8-1.1-1.5-1.1-.9 0-1.7.7-1.7 1.6 0 .3 0 .5.2.8l4.7 12.5zm8.8-1l-.2.7c0 .9.8 1.6 1.7 1.6s1.4-.5 1.6-1.2l.7-2.1h6.2l.7 2.1c.2.7.7 1.2 1.6 1.2.8 0 1.5-.6 1.5-1.5 0-.2 0-.5-.2-.8l-4.4-12.2c-.4-1.1-1.2-1.9-2.4-1.9-1.1 0-2 .8-2.4 1.9l-4.4 12.2zm6.9-10.6l2.1 6.5H59l2.1-6.5zm13.5-3.5c-3 0-5.6 2-5.6 5.1 0 5.2 7.5 3.6 7.5 6.3 0 1.1-.8 1.9-2.3 1.9s-2.7-.9-3.8-.9c-.9 0-1.5.7-1.5 1.6 0 2.1 3.7 2.5 5.5 2.5 3.1 0 5.7-2 5.7-5.2 0-5.8-7.5-4.3-7.5-6.6 0-.9.9-1.5 1.8-1.5 1.3 0 2.1.7 3 .7s1.5-.8 1.5-1.7c.1-1.7-3.1-2.2-4.3-2.2zM89 104.1c-2.8 0-4.2-2.4-4.2-5.2 0-2.7 1.4-5.2 4.2-5.2 2.8 0 4.2 2.4 4.2 5.2 0 2.7-1.3 5.2-4.2 5.2zm0 3.1c4.6 0 7.7-3.6 7.7-8.3 0-4.6-3.2-8.3-7.7-8.3-4.6 0-7.7 3.6-7.7 8.3s3.2 8.3 7.7 8.3zm9.5-2.1c0 1.1.7 1.8 1.8 1.8h5.6c1 0 1.6-.7 1.6-1.5s-.5-1.6-1.6-1.6h-4V92.5c0-1.1-.7-1.8-1.7-1.8s-1.7.6-1.7 1.8v12.6z"/><path fill="#ed1c24" d="M84.7 20.9a11.6 11.6 0 1 1 23.2 0 11.6 11.6 0 0 1-23.2 0zm0 25.2a11.6 11.6 0 1 1 23.2 0 11.6 11.6 0 0 1-23.2 0zM9 75.8c0 6.9 7.2 10.9 13.3 10.9s12.5-4.8 12.5-10.9V56.9h.2l18.3 20.9c5.7 7.3 9.5 8.9 14.1 8.9 6.8 0 11.3-4.7 11.3-10.8V20.7c0-6.1-5.1-11.5-13.5-11.5a12 12 0 0 0-12 11.9v19.1H53L32.1 15.8C26.3 8.5 23.8 9 19.2 9 14.3 9.1 9 14.4 9 19.8v56z"/></g></svg>