<svg width="146" height="29" viewBox="0 0 146 29" fill="none" xmlns="http://www.w3.org/2000/svg">
<path fill-rule="evenodd" clip-rule="evenodd" d="M28.6695 6.75136V0.000244141C22.254 0.000244141 16.3316 2.0874 11.5548 5.61279C12.4974 8.54221 13.8076 11.3102 15.4357 13.8614C19.1056 10.4655 23.6384 7.97314 28.6695 6.75136Z" fill="#32445B"/>
<path fill-rule="evenodd" clip-rule="evenodd" d="M16.7109 15.7204C19.8563 20.028 23.9439 23.6151 28.6694 26.1911V9.04663C24.1145 10.2503 20.0193 12.5804 16.7109 15.7204Z" fill="#32445B"/>
<path fill-rule="evenodd" clip-rule="evenodd" d="M13.821 15.4687C12.1212 12.8827 10.7295 10.0802 9.69779 7.11377C3.75295 12.3157 0.000244141 19.9171 0.000244141 28.3905H6.81768C8.0294 23.492 10.4804 19.0698 13.821 15.4687Z" fill="#32445B"/>
<path fill-rule="evenodd" clip-rule="evenodd" d="M28.0642 28.3905C22.9652 25.704 18.5432 21.9181 15.1309 17.3474C12.3344 20.4752 10.2483 24.2393 9.13 28.3905H28.0642Z" fill="#58C1A1"/>
<path fill-rule="evenodd" clip-rule="evenodd" d="M39.5224 16.8247C39.5224 21.6627 42.7556 25.004 47.4654 25.004C52.1747 25.004 55.4084 21.6627 55.4084 16.8247C55.4084 11.9872 52.1747 8.64589 47.4654 8.64589C42.7556 8.64589 39.5224 11.9872 39.5224 16.8247ZM59.6606 16.8247C59.6606 23.7856 54.6347 28.7278 47.4654 28.7278C40.2953 28.7278 35.2693 23.7856 35.2693 16.8247C35.2693 9.86389 40.2953 4.92212 47.4654 4.92212C54.6347 4.92212 59.6606 9.86389 59.6606 16.8247Z" fill="#32445B"/>
<path fill-rule="evenodd" clip-rule="evenodd" d="M87.6458 18.7391V28.3797H83.9206V19.122C83.9206 16.4422 82.7255 15.0153 80.5109 15.0153C78.0161 15.0153 76.7153 16.6507 76.7153 19.9571V28.3797H72.9902V19.122C72.9902 16.4422 71.795 15.0153 69.546 15.0153C67.0857 15.0153 65.7848 16.6507 65.7848 19.6789V28.3797H62.0597V12.0569H65.1524L65.2581 14.4231H65.3281C66.3119 12.6487 68.0342 11.7085 70.4946 11.7085C72.8145 11.7085 74.6416 12.718 75.6262 14.6325H75.6963C76.7153 12.6836 78.5433 11.7085 81.4603 11.7085C85.4316 11.7085 87.6458 14.2491 87.6458 18.7391Z" fill="#32445B"/>
<path fill-rule="evenodd" clip-rule="evenodd" d="M103.302 20.236C103.302 17.1385 101.264 15.0152 98.3117 15.0152C95.3594 15.0152 93.3205 17.1385 93.3205 20.236C93.3205 23.2638 95.3594 25.4215 98.3117 25.4215C101.264 25.4215 103.302 23.2638 103.302 20.236ZM103.83 28.38L103.724 26.0482H103.654C102.459 27.7188 100.385 28.728 97.7141 28.728C93.0043 28.728 89.5602 25.1782 89.5602 20.236C89.5602 15.2934 93.0043 11.7087 97.7141 11.7087C100.385 11.7087 102.424 12.7179 103.619 14.3889H103.689L103.83 12.0567H106.922V28.38H103.83Z" fill="#32445B"/>
<path fill-rule="evenodd" clip-rule="evenodd" d="M122.761 20.2358C122.761 17.1383 120.722 15.015 117.77 15.015C114.818 15.015 112.779 17.1383 112.779 20.2358C112.779 23.2636 114.818 25.4214 117.77 25.4214C120.722 25.4214 122.761 23.2636 122.761 20.2358ZM123.288 28.3798L123.182 26.048H123.112C121.917 27.7187 119.844 28.7278 117.172 28.7278C112.463 28.7278 109.018 25.178 109.018 20.2358C109.018 15.2932 112.463 11.7086 117.172 11.7086C119.527 11.7086 121.355 12.4743 122.585 13.7621H122.655V4.01685H126.38V28.3798H123.288Z" fill="#32445B"/>
<path fill-rule="evenodd" clip-rule="evenodd" d="M142.219 20.236C142.219 17.1385 140.18 15.0152 137.228 15.0152C134.276 15.0152 132.237 17.1385 132.237 20.236C132.237 23.2638 134.276 25.4215 137.228 25.4215C140.18 25.4215 142.219 23.2638 142.219 20.236ZM142.746 28.38L142.64 26.0482H142.57C141.376 27.7188 139.302 28.728 136.631 28.728C131.921 28.728 128.477 25.1782 128.477 20.236C128.477 15.2934 131.921 11.7087 136.631 11.7087C139.302 11.7087 141.34 12.7179 142.535 14.3889H142.605L142.746 12.0567H145.839V28.38H142.746Z" fill="#32445B"/>
</svg>
