<svg xmlns="http://www.w3.org/2000/svg" viewBox="0 0 116 39" fill-rule="evenodd" clip-rule="evenodd" stroke-linejoin="round" stroke-miterlimit="1.414"><path d="M19.489 0C8.738 0 0 8.696 0 19.342c0 10.699 8.738 19.342 19.489 19.342 10.75 0 19.489-8.643 19.489-19.342C38.978 8.643 30.239 0 19.489 0zM30.08 13.228l-11.545-7.22-4.925 2.635 10.38 6.535-7.785 4.164c-.794.422-1.324 1.212-1.324 2.108l.053 11.384 4.82-2.688v-7.22l10.168-5.481a2.556 2.556 0 0 0 1.271-2.003 2.413 2.413 0 0 0-1.113-2.161v-.053zm23.867 16.531h-2.296V12.732c1.283-.067 2.904-.135 3.917-.135 1.755 0 3.173.135 4.456.879 1.958 1.216 2.498 3.378 2.498 5.27 0 2.224-.806 4.247-2.498 5.27h.068c-1.291.813-2.503 1.081-3.849 1.081-.473 0-1.081 0-2.296-.202v4.864zm12.964-5h-2.228V12.8h2.026v1.149c1.485-.946 2.701-1.217 4.861-1.217l-.067 2.027c-2.228 0-3.376.136-4.592.946v9.054zm13.707-.067H78.39v-11.96h2.093v1.082c2.364-1.014 3.174-1.284 4.862-1.284 1.755 0 3.579 1.013 3.579 3.648v8.581H86.56v-7.635c0-1.351 0-2.702-2.025-2.702-1.148 0-2.904.675-3.917 1.081v9.189zm25.591.067h-2.566l4.389-6.013-4.119-5.946h2.904l2.971 4.662 3.038-4.662h2.431l-4.119 5.946 4.389 6.013h-2.903l-3.241-4.662-3.174 4.662zM75.757 12.732v11.96h-2.296v-11.96h2.296zm18.028-2.77v2.77h3.444v1.757h-3.444l-.067 7.027c0 1.352.472 1.419 1.62 1.419h1.756v1.757h-1.958c-2.431 0-3.647-.135-3.647-2.973V9.962h2.296zm8.17 2.77v11.96h-2.228v-11.96h2.228zM55.77 14.219s-.878.067-1.823.135v8.716c1.148.135 1.621.135 2.161.135 2.228 0 4.051-1.148 4.051-4.594 0-3.176-1.688-4.392-4.389-4.392z" fill="#333"/></svg>