<svg xmlns="http://www.w3.org/2000/svg" fill-rule="evenodd" stroke-linejoin="round" stroke-miterlimit="1.4" clip-rule="evenodd" viewBox="0 0 116 39"><path fill="#459eec" d="M19.5 0A19.4 19.4 0 0 0 0 19.3C0 30 8.7 38.7 19.5 38.7 30.2 38.7 39 30 39 19.3S30.2 0 19.5 0zM30 13.2L18.5 6l-4.9 2.6L24 15.2l-7.8 4.1c-.8.5-1.3 1.3-1.3 2.1v11.4l4.9-2.7V23l10.1-5.5a2.6 2.6 0 0 0 1.3-2 2.4 2.4 0 0 0-1.1-2.1zm23.8 16.6h-2.2v-17l3.9-.2c1.7 0 3.1.1 4.4.9 2 1.2 2.5 3.4 2.5 5.2 0 2.3-.8 4.3-2.5 5.3-1.2.8-2.4 1.1-3.8 1.1l-2.3-.2v4.9zm13-5h-2.2v-12h2v1.1a8 8 0 0 1 4.9-1.2l-.1 2c-2.2 0-3.4.2-4.6 1v9zm13.7-.1h-2.2v-12h2v1.1c2.4-1 3.3-1.3 5-1.3 1.7 0 3.5 1 3.5 3.7v8.6h-2.3V17c0-1.3 0-2.7-2-2.7a13 13 0 0 0-4 1.1v9.2zm25.6 0h-2.6l4.4-6-4-5.9h2.8l3 4.7 3-4.7h2.5l-4.2 6 4.4 6h-2.9l-3.2-4.7-3.2 4.7zm-30.4-12v12h-2.3v-12h2.3zm18-2.7v2.7h3.4v1.8h-3.4v7c0 1.4.4 1.4 1.5 1.4h1.8v1.8h-2c-2.4 0-3.6-.1-3.6-3V10h2.3zm8.2 2.7v12h-2.3v-12h2.3zm-46.2 1.5l-1.9.2V23l2.2.1c2.2 0 4-1.1 4-4.6 0-3.2-1.6-4.4-4.3-4.4z"/></svg>