<svg xmlns="http://www.w3.org/2000/svg" viewBox="0 0 447.6 120.8" xml:space="preserve"><style>.st0{display:none}.st1{fill:#54a8d1}.st2{fill:#464543}</style><g><path class="st2" d="M184.8 78.9c3.6 0 5.8 2.4 5.8 6.3v9.6h-2.3v-9.1c0-3-1.5-4.7-4-4.7-2.4 0-4.3 1.7-4.3 4.8v9h-2.3v-9.2c0-2.9-1.5-4.6-4-4.6s-4.3 2.1-4.3 4.9v8.9H167V79.2h2.3v2.6c1-1.5 2.4-3 5-3 2.5 0 4.2 1.4 5 3.1 1.1-1.6 2.8-3 5.5-3zM203.5 93.1c2.1 0 3.6-.9 4.9-2.2l1.4 1.3a8.26 8.26 0 0 1-6.4 2.9c-4.3 0-7.8-3.3-7.8-8.1 0-4.5 3.2-8.1 7.5-8.1 4.6 0 7.3 3.7 7.3 8.3v.7H198c.3 3.3 2.7 5.2 5.5 5.2zm4.5-6.9c-.2-2.8-1.9-5.3-5-5.3-2.7 0-4.8 2.3-5.1 5.3H208zM218.3 94.8H216V79.2h2.3v4.1c1.1-2.6 3.4-4.5 6.4-4.3v2.5h-.2c-3.4 0-6.2 2.4-6.2 7.1v6.2zM235.8 93.1c2.1 0 3.6-.9 4.9-2.2l1.4 1.3a8.26 8.26 0 0 1-6.4 2.9c-4.3 0-7.8-3.3-7.8-8.1 0-4.5 3.2-8.1 7.5-8.1 4.6 0 7.3 3.7 7.3 8.3v.7h-12.4c.3 3.3 2.7 5.2 5.5 5.2zm4.5-6.9c-.2-2.8-1.9-5.3-5-5.3-2.7 0-4.8 2.3-5.1 5.3h10.1zM269 79.2h2.5l-6.8 15.7h-2l-6.8-15.7h2.6l5.2 12.9 5.3-12.9zM280.2 95.1c-3 0-5.9-1.7-5.9-4.9 0-3.3 2.7-5.1 6.5-5.1 1.9 0 3.2.3 4.6.7v-.5c0-2.8-1.6-4.3-4.5-4.3-1.8 0-3.1.5-4.6 1.1l-.7-1.9c1.7-.8 3.3-1.3 5.5-1.3 3 0 4.9 1.1 5.7 3.3 1.2-2.1 3.4-3.5 6-3.5 4.6 0 7.3 3.7 7.3 8.3 0 .2 0 .5-.1.7h-12.3c.3 3.4 2.7 5.3 5.5 5.3 2.2 0 3.6-.9 4.9-2.2l1.4 1.3a8.11 8.11 0 0 1-6.4 2.9c-2.5 0-4.8-1.2-6.2-3.1a8.5 8.5 0 0 1-6.7 3.2zm.9-8.2c-2.8 0-4.4 1.2-4.4 3.2s1.7 3.1 3.8 3.1c2.3 0 4.2-1.1 5.6-2.8-.4-.9-.6-1.9-.6-3-1.2-.2-2.7-.5-4.4-.5zm16.7-.7c-.2-2.8-1.9-5.3-4.9-5.3-2.7 0-4.8 2.3-5.1 5.3h10zM308 94.8h-2.3V79.2h2.3v4.1c1.1-2.6 3.4-4.5 6.4-4.3v2.5h-.2c-3.4 0-6.2 2.4-6.2 7.1v6.2zM331 94.8v-3.1c-1.3 1.9-3.1 3.5-6 3.5-3.7 0-7.4-3-7.4-8.1s3.7-8.1 7.4-8.1c2.9 0 4.8 1.6 6 3.3v-9.4h2.3v22H331zM325.5 81c-3 0-5.5 2.2-5.5 6 0 3.7 2.5 6.1 5.5 6.1 2.9 0 5.6-2.4 5.6-6.1 0-3.6-2.7-6-5.6-6z"/></g><g id="sampension_x5F_sort"><path class="st1" d="M326.4 32.9h6.9v28.3h-6.9zM156.8 42.6c0-6.6-2.8-9.7-9.6-9.7H113v28.3h6.9V38.8h11.5v22.4h6.9V38.8h7.5c3 0 4.1 1 4.1 4.1v18.4h6.9V42.6zM188.3 32.9H167v37.5h6.9v-9.1h14.4c6.8 0 9.6-3 9.6-9.7v-9c0-6.7-2.8-9.7-9.6-9.7zm2.7 18.4c0 3-1 4.1-4.1 4.1h-13V38.8h13c3 0 4.1 1 4.1 4.1v8.4zM364.9 32.7h-11.7c-6.8 0-9.6 3-9.6 9.7v9.3c0 6.6 2.8 9.7 9.6 9.7h11.7c6.8 0 9.6-3 9.6-9.7v-9.3c0-6.7-2.8-9.7-9.6-9.7zm2.6 18.7c0 3-1 4.1-4.1 4.1h-9c-3 0-4.1-1-4.1-4.1v-8.8c0-3 1-4.1 4.1-4.1h9c3 0 4.1 1 4.1 4.1v8.8zM278 42.6c0-6.6-2.8-9.7-9.6-9.7h-20.5v28.3h6.9V38.8H267c3 0 4.1 1 4.1 4.1v18.4h6.9V42.6zM414.7 42.6c0-6.6-2.8-9.7-9.6-9.7h-20.5v28.3h6.9V38.8h12.2c3 0 4.1 1 4.1 4.1v18.4h6.9V42.6zM237.8 49.8v-7.6c0-6.6-2.8-9.5-9.6-9.5h-11.4c-6.8 0-9.6 3-9.6 9.7v9.1c0 6.6 2.8 9.7 9.6 9.7h20.4v-5.9h-19c-3 0-4.1-1-4.1-4.1v-1.5h23.7zm-23.7-7.1c0-3 1-4.1 4.1-4.1h8.7c3 0 4.1.8 4.1 3.9v1.8h-16.8v-1.6zM307.6 49.8c2 0 2.5.5 2.5 2.5v.6c0 2-.5 2.5-2.5 2.5h-19.7v5.9H309c5.8 0 8-2.2 8-7.9v-1c0-5.7-2.2-7.9-8-7.9h-12.3c-2 0-2.5-.5-2.5-2.5v-.6c0-2 .5-2.5 2.5-2.5h19.4V33h-20.8c-5.8 0-8 2.2-8 7.9v1c0 5.7 2.2 7.9 8 7.9h12.3zM53.2 49.8c2 0 2.5.5 2.5 2.5v.6c0 2-.5 2.5-2.5 2.5H33.5v5.9h21.1c5.8 0 8-2.2 8-7.9v-1c0-5.7-2.2-7.9-8-7.9H42.3c-2 0-2.5-.5-2.5-2.5v-.6c0-2 .5-2.5 2.5-2.5h19.4V33H40.9c-5.8 0-8 2.2-8 7.9v1c0 5.7 2.2 7.9 8 7.9h12.3zM93.2 32.9H73.4v5.9h18.4c3 0 4.1 1 4.1 4.1v1.5h-16c-5.8 0-8 2.2-8 7.9v1c0 5.7 2.2 7.9 8 7.9h22.9V42.6c0-6.7-2.8-9.7-9.6-9.7zm2.7 22.4H81.3c-2 0-2.5-.5-2.5-2.5v-.6c0-2 .5-2.5 2.5-2.5h14.6v5.6z"/></g></svg>